G04 *
G04 Layer: Top Copper *
G04 Standard RS-274X Format for PCB Power & Global PCBA *
%FSLAX46Y46*%
%MOMM*%
%LPD*%
%AMOC8*
5,1,8,0,0,1.08239X$1,22.5*
G04 Standard Apertures *%
%ADD10C,6.0000*%
D10*
X5000000Y5000000D03*
X115000000Y5000000D03*
X5000000Y65000000D03*
X115000000Y65000000D03*
%ADD11R,1.0000X1.2000*%
D11*
X34500000Y26000000D03*
X35500000Y26000000D03*
X56500000Y26000000D03*
X57500000Y26000000D03*
X78500000Y26000000D03*
X79500000Y26000000D03*
X100500000Y26000000D03*
X101500000Y26000000D03*
X40500000Y25000000D03*
X41500000Y25000000D03*
X62500000Y25000000D03*
X63500000Y25000000D03*
X84500000Y25000000D03*
X85500000Y25000000D03*
X106500000Y25000000D03*
X107500000Y25000000D03*
X85500000Y63000000D03*
X86500000Y63000000D03*
X85500000Y59000000D03*
X86500000Y59000000D03*
X105500000Y44000000D03*
X106500000Y44000000D03*
X105500000Y48000000D03*
X106500000Y48000000D03*
X105500000Y52000000D03*
X106500000Y52000000D03*
X105500000Y56000000D03*
X106500000Y56000000D03*
X89500000Y61000000D03*
X90500000Y61000000D03*
X89500000Y43000000D03*
X90500000Y43000000D03*
X17500000Y28000000D03*
X18500000Y28000000D03*
X21500000Y28000000D03*
X22500000Y28000000D03*
X8500000Y14000000D03*
X9500000Y14000000D03*
X14500000Y14000000D03*
X15500000Y14000000D03*
%ADD12R,1.2000X1.6000*%
D12*
X37200000Y42000000D03*
X38800000Y42000000D03*
X41200000Y42000000D03*
X42800000Y42000000D03*
X45200000Y42000000D03*
X46800000Y42000000D03*
X49200000Y42000000D03*
X50800000Y42000000D03*
X53200000Y42000000D03*
X54800000Y42000000D03*
D11*
X102500000Y44000000D03*
X103500000Y44000000D03*
X102500000Y48000000D03*
X103500000Y48000000D03*
X102500000Y52000000D03*
X103500000Y52000000D03*
X102500000Y56000000D03*
X103500000Y56000000D03*
X53500000Y62000000D03*
X54500000Y62000000D03*
X41500000Y33000000D03*
X42500000Y33000000D03*
X16500000Y17000000D03*
X17500000Y17000000D03*
X87500000Y61000000D03*
X88500000Y61000000D03*
X43500000Y57000000D03*
X44500000Y57000000D03*
X51500000Y57000000D03*
X52500000Y57000000D03*
X51500000Y62000000D03*
X52500000Y62000000D03*
X15500000Y12000000D03*
X16500000Y12000000D03*
D12*
X32200000Y32000000D03*
X33800000Y32000000D03*
X51200000Y35000000D03*
X52800000Y35000000D03*
%ADD13R,1.8000X0.9000*%
D13*
X53000000Y40500000D03*
X71000000Y40500000D03*
X53000000Y41770000D03*
X71000000Y41770000D03*
X53000000Y43040000D03*
X71000000Y43040000D03*
X53000000Y44310000D03*
X71000000Y44310000D03*
X53000000Y45580000D03*
X71000000Y45580000D03*
X53000000Y46850000D03*
X71000000Y46850000D03*
X53000000Y48120000D03*
X71000000Y48120000D03*
X53000000Y49390000D03*
X71000000Y49390000D03*
X53000000Y50660000D03*
X71000000Y50660000D03*
X53000000Y51930000D03*
X71000000Y51930000D03*
X53000000Y53200000D03*
X71000000Y53200000D03*
X53000000Y54470000D03*
X71000000Y54470000D03*
X53000000Y55740000D03*
X71000000Y55740000D03*
X53000000Y57010000D03*
X71000000Y57010000D03*
%ADD14R,1.4000X0.5500*%
D14*
X42600000Y33000000D03*
X47400000Y33000000D03*
X42600000Y34000000D03*
X47400000Y34000000D03*
X42600000Y35000000D03*
X47400000Y35000000D03*
X42600000Y36000000D03*
X47400000Y36000000D03*
X42600000Y37000000D03*
X47400000Y37000000D03*
%ADD15R,1.5000X0.6500*%
D15*
X17200000Y15555000D03*
X22800000Y15555000D03*
X17200000Y16825000D03*
X22800000Y16825000D03*
X17200000Y18095000D03*
X22800000Y18095000D03*
X17200000Y19365000D03*
X22800000Y19365000D03*
X17200000Y20635000D03*
X22800000Y20635000D03*
X17200000Y21905000D03*
X22800000Y21905000D03*
X17200000Y23175000D03*
X22800000Y23175000D03*
X17200000Y24445000D03*
X22800000Y24445000D03*
%ADD16C,2.5000*%
D16*
X32000000Y30000000D03*
X44000000Y30000000D03*
X32000000Y42000000D03*
X44000000Y42000000D03*
X38000000Y43000000D03*
%ADD17C,2.8000*%
D17*
X32920000Y10000000D03*
X38000000Y10000000D03*
X43080000Y10000000D03*
D16*
X54000000Y30000000D03*
X66000000Y30000000D03*
X54000000Y42000000D03*
X66000000Y42000000D03*
X60000000Y43000000D03*
D17*
X54920000Y10000000D03*
X60000000Y10000000D03*
X65080000Y10000000D03*
D16*
X76000000Y30000000D03*
X88000000Y30000000D03*
X76000000Y42000000D03*
X88000000Y42000000D03*
X82000000Y43000000D03*
D17*
X76920000Y10000000D03*
X82000000Y10000000D03*
X87080000Y10000000D03*
D16*
X98000000Y30000000D03*
X110000000Y30000000D03*
X98000000Y42000000D03*
X110000000Y42000000D03*
X104000000Y43000000D03*
D17*
X98920000Y10000000D03*
X104000000Y10000000D03*
X109080000Y10000000D03*
%ADD18C,3.0000*%
D18*
X9460000Y60000000D03*
X14540000Y60000000D03*
%ADD19R,3.2000X1.8000*%
D19*
X22000000Y47000000D03*
X22000000Y41000000D03*
D16*
X20500000Y67000000D03*
X35500000Y67000000D03*
X20500000Y37000000D03*
X35500000Y37000000D03*
%ADD20C,2.0000*%
D20*
X112000000Y44380000D03*
X112000000Y48190000D03*
X112000000Y52000000D03*
X112000000Y55810000D03*
X112000000Y59620000D03*
%ADD21R,0.5000X1.4000*%
D21*
X9000000Y10000000D03*
X9800000Y10000000D03*
X10600000Y10000000D03*
X11400000Y10000000D03*
X12200000Y10000000D03*
X13000000Y10000000D03*
X13800000Y10000000D03*
X14600000Y10000000D03*
M02*
