G04 *
G04 Layer: Bottom Copper *
G04 Standard RS-274X Format for JLCPCB *
%FSLAX46Y46*%
%MOMM*%
%LPD*%
%AMOC8*
5,1,8,0,0,1.08239X$1,22.5*
G04 Standard Apertures *%
%ADD10C,6.0000*%
D10*
X5000000Y5000000D03*
X115000000Y5000000D03*
X5000000Y65000000D03*
X115000000Y65000000D03*
%ADD11C,2.5000*%
D11*
X32000000Y30000000D03*
X44000000Y30000000D03*
X32000000Y42000000D03*
X44000000Y42000000D03*
X38000000Y43000000D03*
X32000000Y42000000D02*
X32920000Y10000000D01*
X44000000Y42000000D02*
X43080000Y10000000D01*
%ADD12C,2.8000*%
D12*
X32920000Y10000000D03*
X38000000Y10000000D03*
X43080000Y10000000D03*
D11*
X54000000Y30000000D03*
X66000000Y30000000D03*
X54000000Y42000000D03*
X66000000Y42000000D03*
X60000000Y43000000D03*
X54000000Y42000000D02*
X54920000Y10000000D01*
X66000000Y42000000D02*
X65080000Y10000000D01*
D12*
X54920000Y10000000D03*
X60000000Y10000000D03*
X65080000Y10000000D03*
D11*
X76000000Y30000000D03*
X88000000Y30000000D03*
X76000000Y42000000D03*
X88000000Y42000000D03*
X82000000Y43000000D03*
X76000000Y42000000D02*
X76920000Y10000000D01*
X88000000Y42000000D02*
X87080000Y10000000D01*
D12*
X76920000Y10000000D03*
X82000000Y10000000D03*
X87080000Y10000000D03*
D11*
X98000000Y30000000D03*
X110000000Y30000000D03*
X98000000Y42000000D03*
X110000000Y42000000D03*
X104000000Y43000000D03*
X98000000Y42000000D02*
X98920000Y10000000D01*
X110000000Y42000000D02*
X109080000Y10000000D01*
D12*
X98920000Y10000000D03*
X104000000Y10000000D03*
X109080000Y10000000D03*
%ADD13C,3.0000*%
D13*
X9460000Y60000000D03*
X14540000Y60000000D03*
D11*
X9460000Y60000000D02*
X18000000Y58000000D01*
X24000000Y58000000D02*
X22000000Y47000000D01*
X22000000Y41000000D02*
X32000000Y42000000D01*
X32000000Y42000000D02*
X98000000Y42000000D01*
X20500000Y67000000D03*
X35500000Y67000000D03*
X20500000Y37000000D03*
X35500000Y37000000D03*
%ADD14C,2.0000*%
D14*
X112000000Y44380000D03*
X112000000Y48190000D03*
X112000000Y52000000D03*
X112000000Y55810000D03*
X112000000Y59620000D03*
M02*
