M48
; Layer: Excellon Drill File
; Tool Definitions for Ease Appliances v1.0
METRIC,TZ
T01C0.800
T02C1.000
T03C1.200
T04C1.300
T05C1.500
T06C3.200
%
G90
G05
T06
X005000Y005000
X115000Y005000
X005000Y065000
X115000Y065000
T04
X032000Y030000
X044000Y030000
X032000Y042000
X044000Y042000
X038000Y043000
X054000Y030000
X066000Y030000
X054000Y042000
X066000Y042000
X060000Y043000
X076000Y030000
X088000Y030000
X076000Y042000
X088000Y042000
X082000Y043000
X098000Y030000
X110000Y030000
X098000Y042000
X110000Y042000
X104000Y043000
T05
X009460Y060000
X014540Y060000
X032920Y010000
X038000Y010000
X043080Y010000
X054920Y010000
X060000Y010000
X065080Y010000
X076920Y010000
X082000Y010000
X087080Y010000
X098920Y010000
X104000Y010000
X109080Y010000
T03
X020500Y067000
X035500Y067000
X020500Y037000
X035500Y037000
T02
X112000Y044380
X112000Y048190
X112000Y052000
X112000Y055810
X112000Y059620
M30
